<?xml version="1.0" encoding="utf-8"?>
<!-- Generator: Adobe Illustrator 19.2.1, SVG Export Plug-In . SVG Version: 6.00 Build 0)  -->
<svg version="1.1" id="Ebene_1" xmlns="http://www.w3.org/2000/svg" xmlns:xlink="http://www.w3.org/1999/xlink" x="0px" y="0px"
	 viewBox="0 0 200 200" enable-background="new 0 0 200 200" xml:space="preserve">
<path fill="#D7D7D7" d="M158,104h-24V62c0-3.3-2.7-6-6-6h-6v-6c0-3.3-2.7-6-6-6H92c-3.3,0-6,2.7-6,6v6h-6c-3.3,0-6,2.7-6,6v42H50
	c-3.3,0-6,2.7-6,6v48c0,3.3,2.7,6,6,6h42v-24h24v24h42c3.3,0,6-2.7,6-6v-48C164,106.7,161.3,104,158,104z M68,152H56v-12h12V152z
	 M68,128H56v-12h12V128z M98,128H86v-12h12V128z M98,104H86V92h12V104z M98,80H86V68h12V80z M122,128h-12v-12h12V128z M122,104h-12
	V92h12V104z M122,80h-12V68h12V80z M152,152h-12v-12h12V152z M152,128h-12v-12h12V128z"/>
<path fill="#0094FF" d="M154,100h-24V58c0-3.3-2.7-6-6-6h-6v-6c0-3.3-2.7-6-6-6H88c-3.3,0-6,2.7-6,6v6h-6c-3.3,0-6,2.7-6,6v42H46
	c-3.3,0-6,2.7-6,6v48c0,3.3,2.7,6,6,6h42v-24h24v24h42c3.3,0,6-2.7,6-6v-48C160,102.7,157.3,100,154,100z M64,148H52v-12h12V148z
	 M64,124H52v-12h12V124z M94,124H82v-12h12V124z M94,100H82V88h12V100z M94,76H82V64h12V76z M118,124h-12v-12h12V124z M118,100h-12
	V88h12V100z M118,76h-12V64h12V76z M148,148h-12v-12h12V148z M148,124h-12v-12h12V124z"/>
</svg>
