<?xml version="1.0" encoding="utf-8"?>
<!-- Generator: Adobe Illustrator 19.2.1, SVG Export Plug-In . SVG Version: 6.00 Build 0)  -->
<svg version="1.1" id="Ebene_1" xmlns="http://www.w3.org/2000/svg" xmlns:xlink="http://www.w3.org/1999/xlink" x="0px" y="0px"
	 viewBox="0 0 200 200" enable-background="new 0 0 200 200" xml:space="preserve">
<g>
	<path fill="#D7D7D7" d="M141,44c-13.2,0-24,10.8-24,24h30v23.2c10.3-2.7,18-12,18-23.2C165,54.8,154.2,44,141,44z"/>
	<path fill="#D7D7D7" d="M135,74H51c-2.4,0-4.6,1.5-5.5,3.7c-0.9,2.2-0.4,4.8,1.3,6.5L87,124.5V152H69v12h48v-12H99v-27.5l40.2-40.2
		c1.7-1.7,2.2-4.3,1.3-6.5C139.6,75.5,137.4,74,135,74z"/>
	<path fill="#D7D7D7" d="M66.5,68h17L67.2,51.8C66.1,50.6,64.6,50,63,50H45v12h15.5L66.5,68z"/>
</g>
<g>
	<path fill="#0094FF" d="M136,40c-13.2,0-24,10.8-24,24h30v23.2c10.3-2.7,18-12,18-23.2C160,50.8,149.2,40,136,40z"/>
	<path fill="#0094FF" d="M130,70H46c-2.4,0-4.6,1.5-5.5,3.7c-0.9,2.2-0.4,4.8,1.3,6.5L82,120.5V148H64v12h48v-12H94v-27.5l40.2-40.2
		c1.7-1.7,2.2-4.3,1.3-6.5C134.6,71.5,132.4,70,130,70z"/>
	<path fill="#0094FF" d="M61.5,64h17L62.2,47.8C61.1,46.6,59.6,46,58,46H40v12h15.5L61.5,64z"/>
</g>
</svg>
