<?xml version="1.0" encoding="utf-8"?>
<!-- Generator: Adobe Illustrator 19.2.1, SVG Export Plug-In . SVG Version: 6.00 Build 0)  -->
<svg version="1.1" id="Ebene_1" xmlns="http://www.w3.org/2000/svg" xmlns:xlink="http://www.w3.org/1999/xlink" x="0px" y="0px"
	 viewBox="0 0 200 200" enable-background="new 0 0 200 200" xml:space="preserve">
<g>
	<path fill="#D7D7D7" d="M123.2,85c0-10.5-8.6-19.1-19.1-19.1S85,74.5,85,85s8.6,19.1,19.1,19.1S123.2,95.5,123.2,85z"/>
	<path fill="#D7D7D7" d="M65.9,104.1h10.9V82.3c0-15,12.2-27.3,27.3-27.3c15,0,27.3,12.2,27.3,27.3v21.8h10.9
		c9,0,16.4-7.3,16.4-16.4c0-9-7.3-16.4-16.4-16.4h-1.6c-4.7-15.8-19.3-27.3-36.6-27.3c-17.3,0-31.9,11.5-36.6,27.3h-1.6
		c-9,0-16.4,7.3-16.4,16.4C49.5,96.8,56.9,104.1,65.9,104.1z"/>
	<path fill="#D7D7D7" d="M104.1,109.5c-12.1,0-22.6,6.6-28.3,16.4h56.6C126.7,116.1,116.2,109.5,104.1,109.5z"/>
	<rect x="49.5" y="147.7" fill="#D7D7D7" width="109.1" height="16.4"/>
	<path fill="#D7D7D7" d="M60.5,131.4c-3,0-5.5,2.4-5.5,5.5v5.5h43.6v-5.5c0-3-2.4-5.5-5.5-5.5H60.5z"/>
	<path fill="#D7D7D7" d="M153.2,136.8c0-3-2.4-5.5-5.5-5.5H115c-3,0-5.5,2.4-5.5,5.5v5.5h43.6V136.8z"/>
</g>
<g>
	<path fill="#0094FF" d="M119.1,80.9c0-10.5-8.6-19.1-19.1-19.1s-19.1,8.6-19.1,19.1S89.5,100,100,100S119.1,91.4,119.1,80.9z"/>
	<path fill="#0094FF" d="M61.8,100h10.9V78.2c0-15,12.2-27.3,27.3-27.3c15,0,27.3,12.2,27.3,27.3V100h10.9c9,0,16.4-7.3,16.4-16.4
		c0-9-7.3-16.4-16.4-16.4h-1.6C131.9,51.5,117.3,40,100,40c-17.3,0-31.9,11.5-36.6,27.3h-1.6c-9,0-16.4,7.3-16.4,16.4
		C45.5,92.7,52.8,100,61.8,100z"/>
	<path fill="#0094FF" d="M100,105.5c-12.1,0-22.6,6.6-28.3,16.4h56.6C122.6,112.1,112.1,105.5,100,105.5z"/>
	<rect x="45.5" y="143.6" fill="#0094FF" width="109.1" height="16.4"/>
	<path fill="#0094FF" d="M56.4,127.3c-3,0-5.5,2.4-5.5,5.5v5.5h43.6v-5.5c0-3-2.4-5.5-5.5-5.5H56.4z"/>
	<path fill="#0094FF" d="M149.1,132.7c0-3-2.4-5.5-5.5-5.5h-32.7c-3,0-5.5,2.4-5.5,5.5v5.5h43.6V132.7z"/>
</g>
</svg>
