<?xml version="1.0" encoding="utf-8"?>
<!-- Generator: Adobe Illustrator 19.2.1, SVG Export Plug-In . SVG Version: 6.00 Build 0)  -->
<svg version="1.1" id="Ebene_1" xmlns="http://www.w3.org/2000/svg" xmlns:xlink="http://www.w3.org/1999/xlink" x="0px" y="0px"
	 viewBox="0 0 200 200" enable-background="new 0 0 200 200" xml:space="preserve">
<g>
	<path fill="#D7D7D7" d="M81.3,55.6c0-6.3-5.1-11.4-11.4-11.4s-11.4,5.1-11.4,11.4v17.1h22.9V55.6z"/>
	<path fill="#D7D7D7" d="M81.3,78.5H58.5c0,17.1-11.4,22.9-11.4,45.7s11.4,40,17.1,40h11.4c3,0,7.6-4.7,11.2-12.5
		c-3.5-6.5-5.5-13.9-5.5-21.8c0-9.5,2.9-18.3,7.8-25.6C85.8,95.5,81.3,89.2,81.3,78.5z"/>
	<path fill="#D7D7D7" d="M127,95.6c-18.9,0-34.3,15.4-34.3,34.3c0,18.9,15.4,34.3,34.3,34.3s34.3-15.4,34.3-34.3
		C161.3,111,146,95.6,127,95.6z M115.6,118.5c-3.2,0-5.7-2.6-5.7-5.7c0-3.2,2.6-5.7,5.7-5.7c3.2,0,5.7,2.6,5.7,5.7
		C121.3,115.9,118.8,118.5,115.6,118.5z M127,135.6c-3.2,0-5.7-2.6-5.7-5.7c0-3.2,2.6-5.7,5.7-5.7c3.2,0,5.7,2.6,5.7,5.7
		C132.8,133.1,130.2,135.6,127,135.6z M138.5,118.5c-3.2,0-5.7-2.6-5.7-5.7c0-3.2,2.6-5.7,5.7-5.7c3.2,0,5.7,2.6,5.7,5.7
		C144.2,115.9,141.6,118.5,138.5,118.5z"/>
</g>
<g>
	<path fill="#0094FF" d="M77.1,51.4C77.1,45.1,72,40,65.7,40s-11.4,5.1-11.4,11.4v17.1h22.9V51.4z"/>
	<path fill="#0094FF" d="M77.1,74.3H54.3c0,17.1-11.4,22.9-11.4,45.7s11.4,40,17.1,40h11.4c3,0,7.6-4.7,11.2-12.5
		c-3.5-6.5-5.5-13.9-5.5-21.8c0-9.5,2.9-18.3,7.8-25.6C81.6,91.3,77.1,85,77.1,74.3z"/>
	<path fill="#0094FF" d="M122.9,91.4c-18.9,0-34.3,15.4-34.3,34.3c0,18.9,15.4,34.3,34.3,34.3s34.3-15.4,34.3-34.3
		C157.1,106.8,141.8,91.4,122.9,91.4z M111.4,114.3c-3.2,0-5.7-2.6-5.7-5.7c0-3.2,2.6-5.7,5.7-5.7c3.2,0,5.7,2.6,5.7,5.7
		C117.1,111.7,114.6,114.3,111.4,114.3z M122.9,131.4c-3.2,0-5.7-2.6-5.7-5.7c0-3.2,2.6-5.7,5.7-5.7c3.2,0,5.7,2.6,5.7,5.7
		C128.6,128.9,126,131.4,122.9,131.4z M134.3,114.3c-3.2,0-5.7-2.6-5.7-5.7c0-3.2,2.6-5.7,5.7-5.7c3.2,0,5.7,2.6,5.7,5.7
		C140,111.7,137.4,114.3,134.3,114.3z"/>
</g>
</svg>
