<?xml version="1.0" encoding="utf-8"?>
<!-- Generator: Adobe Illustrator 19.2.1, SVG Export Plug-In . SVG Version: 6.00 Build 0)  -->
<svg version="1.1" id="Ebene_1" xmlns="http://www.w3.org/2000/svg" xmlns:xlink="http://www.w3.org/1999/xlink" x="0px" y="0px"
	 viewBox="0 0 200 200" enable-background="new 0 0 200 200" xml:space="preserve">
<g>
	<path fill="#D7D7D7" d="M54.2,91.3H154c3.4,0,6.2-2.8,6.2-6.2v-8.4c0-2.5-1.5-4.7-3.7-5.7l-49.9-22.2c-1.6-0.7-3.5-0.7-5.1,0
		L51.6,70.9c-2.3,1-3.7,3.2-3.7,5.7v8.4C47.9,88.5,50.7,91.3,54.2,91.3z"/>
	<path fill="#D7D7D7" d="M163.8,151.8l-2.1-6.2c-0.9-2.6-3.2-4.3-5.9-4.3h-8V97.6h-12.5v43.7h-12.5V97.6h-12.5v43.7H97.9V97.6H85.4
		v43.7H72.9V97.6H60.4v43.7h-8c-2.7,0-5.1,1.7-5.9,4.3l-2.1,6.2c-0.6,1.9-0.3,4,0.9,5.6c1.2,1.6,3.1,2.6,5.1,2.6h107.5
		c2,0,3.9-1,5.1-2.6C164.1,155.8,164.4,153.7,163.8,151.8z"/>
</g>
<g>
	<path fill="#0094FF" d="M50.1,87.2h99.9c3.4,0,6.2-2.8,6.2-6.2v-8.4c0-2.5-1.5-4.7-3.7-5.7l-49.9-22.2c-1.6-0.7-3.5-0.7-5.1,0
		L47.5,66.9c-2.3,1-3.7,3.2-3.7,5.7V81C43.8,84.4,46.6,87.2,50.1,87.2z"/>
	<path fill="#0094FF" d="M159.7,147.7l-2.1-6.2c-0.9-2.6-3.2-4.3-5.9-4.3h-8V93.5h-12.5v43.7h-12.5V93.5h-12.5v43.7H93.8V93.5H81.3
		v43.7H68.8V93.5H56.3v43.7h-8c-2.7,0-5.1,1.7-5.9,4.3l-2.1,6.2c-0.6,1.9-0.3,4,0.9,5.6c1.2,1.6,3.1,2.6,5.1,2.6h107.5
		c2,0,3.9-1,5.1-2.6C160,151.7,160.3,149.6,159.7,147.7z"/>
</g>
</svg>
