<?xml version="1.0" encoding="utf-8"?>
<!-- Generator: Adobe Illustrator 19.2.1, SVG Export Plug-In . SVG Version: 6.00 Build 0)  -->
<svg version="1.1" id="Ebene_1" xmlns="http://www.w3.org/2000/svg" xmlns:xlink="http://www.w3.org/1999/xlink" x="0px" y="0px"
	 viewBox="0 0 200 200" enable-background="new 0 0 200 200" xml:space="preserve">
<g>
	<path fill="#D7D7D7" d="M145.7,156c-4.8-7.7-9.1-15.5-12.9-23.3h12.9v-10.4H62.3v10.4h12.9c-3.8,7.8-8,15.6-12.9,23.3
		c-1,1.6-1.1,3.6-0.2,5.3c0.9,1.7,2.7,2.7,4.6,2.7h16.4c0-11.5,4.1-20.9,15.7-20.9h10.4c11.5,0,15.7,9.3,15.7,20.9
		c6.2,0,10.2,0,16.4,0c1.9,0,3.6-1,4.6-2.7C146.8,159.7,146.7,157.6,145.7,156z"/>
	<path fill="#D7D7D7" d="M109.3,64.9V54.5L104,44l-5.2,10.4v10.4c-1.6,6.6-3.5,13.6-5.6,20.9h21.7C112.7,78.5,110.8,71.5,109.3,64.9
		z"/>
	<path fill="#D7D7D7" d="M94.9,117.1l3.9-15.7h10.4l3.9,15.7h12.7c-2.2-5.3-4.1-10.5-5.9-15.7h4.9V91H83.2v10.4h4.9
		c-1.8,5.2-3.7,10.4-5.9,15.7H94.9z"/>
</g>
<g>
	<path fill="#0094FF" d="M141.7,152c-4.8-7.7-9.1-15.5-12.9-23.3h12.9v-10.4H58.3v10.4h12.9c-3.8,7.8-8,15.6-12.9,23.3
		c-1,1.6-1.1,3.6-0.2,5.3c0.9,1.7,2.7,2.7,4.6,2.7h16.4c0-11.5,4.1-20.9,15.7-20.9h10.4c11.5,0,15.7,9.3,15.7,20.9
		c6.2,0,10.2,0,16.4,0c1.9,0,3.6-1,4.6-2.7C142.7,155.6,142.7,153.6,141.7,152z"/>
	<path fill="#0094FF" d="M105.2,60.9V50.4L100,40l-5.2,10.4v10.4c-1.6,6.6-3.5,13.6-5.6,20.9h21.7C108.7,74.5,106.8,67.4,105.2,60.9
		z"/>
	<path fill="#0094FF" d="M90.9,113l3.9-15.7h10.4l3.9,15.7h12.7c-2.2-5.3-4.1-10.5-5.9-15.7h4.9V87H79.1v10.4h4.9
		c-1.8,5.2-3.7,10.4-5.9,15.7H90.9z"/>
</g>
</svg>
