<?xml version="1.0" encoding="utf-8"?>
<!-- Generator: Adobe Illustrator 19.2.1, SVG Export Plug-In . SVG Version: 6.00 Build 0)  -->
<svg version="1.1" id="Ebene_1" xmlns="http://www.w3.org/2000/svg" xmlns:xlink="http://www.w3.org/1999/xlink" x="0px" y="0px"
	 viewBox="0 0 48 48" enable-background="new 0 0 48 48" xml:space="preserve">
<circle fill="#6BB232" cx="24" cy="24" r="24"/>
<g>
	<path fill="#FFFFFF" d="M24.7,12.4h5.5V28c0,1.1-0.2,2.2-0.6,3.1c-0.4,0.9-1,1.7-1.7,2.3c-0.7,0.6-1.5,1.1-2.5,1.5s-2,0.5-3.1,0.5
		c-1.1,0-2.2-0.1-3.2-0.4s-1.8-0.7-2.5-1.3c-0.7-0.6-1.2-1.3-1.6-2.2s-0.6-2-0.6-3.2H20c0,0.6,0.1,1.1,0.2,1.4
		c0.1,0.4,0.3,0.7,0.5,0.9S21,31,21.3,31c0.3,0.1,0.6,0.1,1,0.1c0.8,0,1.3-0.3,1.8-0.9s0.6-1.4,0.6-2.4V12.4z"/>
</g>
</svg>
