<?xml version="1.0" encoding="utf-8"?>
<!-- Generator: Adobe Illustrator 19.2.1, SVG Export Plug-In . SVG Version: 6.00 Build 0)  -->
<svg version="1.1" id="Ebene_1" xmlns="http://www.w3.org/2000/svg" xmlns:xlink="http://www.w3.org/1999/xlink" x="0px" y="0px"
	 viewBox="0 0 200 200" enable-background="new 0 0 200 200" xml:space="preserve">
<g>
	<path fill="#D7D7D7" d="M92,104.3l10.1,34.9c3.4-0.9,7-1.7,10.7-2.4l-10.3-35.4c4.9-5.6,11.5-10,19.2-12.2
		c10.1-2.9,20.3-1.8,29.1,2.5c-8.1-27.2-35.5-43.3-62.9-37.8L86.3,48c-0.8-2.9-3.9-4.6-6.8-3.7c-2.9,0.8-4.6,3.9-3.7,6.8l1.7,5.8
		c-25.1,10.5-38.9,38.3-31.4,65c5.1-8.2,13.2-14.7,23.3-17.6C77.1,102,84.9,102.2,92,104.3z"/>
	<path fill="#D7D7D7" d="M60.4,164H164v-27.3C104,136.8,60.4,158.6,60.4,164z"/>
</g>
<g>
	<path fill="#0094FF" d="M88,100.2l10.1,34.9c3.4-0.9,7-1.7,10.7-2.4L98.5,97.2c4.9-5.6,11.5-10,19.2-12.2
		c10.1-2.9,20.3-1.8,29.1,2.5c-8.1-27.2-35.5-43.3-62.9-37.8l-1.6-5.7c-0.8-2.9-3.9-4.6-6.8-3.7c-2.9,0.8-4.6,3.9-3.7,6.8l1.7,5.8
		c-25.1,10.5-38.9,38.3-31.4,65c5.1-8.2,13.2-14.7,23.3-17.6C73,98,80.8,98.1,88,100.2z"/>
	<path fill="#0094FF" d="M56.4,160H160v-27.3C100,132.7,56.4,154.5,56.4,160z"/>
</g>
</svg>
