<?xml version="1.0" encoding="utf-8"?>
<!-- Generator: Adobe Illustrator 19.2.1, SVG Export Plug-In . SVG Version: 6.00 Build 0)  -->
<svg version="1.1" id="Ebene_1" xmlns="http://www.w3.org/2000/svg" xmlns:xlink="http://www.w3.org/1999/xlink" x="0px" y="0px"
	 viewBox="0 0 200 200" enable-background="new 0 0 200 200" xml:space="preserve">
<g>
	<path fill="#D7D7D7" d="M67.9,163.9h72.9c6.7,0,12.1-4.5,12.1-10H55.8C55.8,159.5,61.2,163.9,67.9,163.9z"/>
	<path fill="#D7D7D7" d="M140.8,78.9c4.7,0,8.6,0.3,11.9,1c-2.5-20.2-23.2-36-48.3-36S58.5,59.7,56,79.9c3.3-0.6,7.2-1,11.9-1H140.8
		z M121.1,61.4c2.5,0,4.6,1.7,4.6,3.8c0,2.1-2,3.8-4.6,3.8c-2.5,0-4.6-1.7-4.6-3.8C116.5,63.1,118.5,61.4,121.1,61.4z M104.4,53.9
		c2.5,0,4.6,1.7,4.6,3.8c0,2.1-2,3.8-4.6,3.8c-2.5,0-4.6-1.7-4.6-3.8C99.8,55.6,101.8,53.9,104.4,53.9z M87.7,61.4
		c2.5,0,4.6,1.7,4.6,3.8c0,2.1-2,3.8-4.6,3.8c-2.5,0-4.6-1.7-4.6-3.8C83.1,63.1,85.2,61.4,87.7,61.4z"/>
	<path fill="#D7D7D7" d="M154.1,105.9c-4,1.9-8.7,3-13.3,3c-4.6,0-8.9-1.2-12.5-3.4c-4.5,2.2-10.3,3.4-14.8,3.4
		c-3.2,0-6.3-0.6-9.1-1.7c-2.8,1.1-5.9,1.7-9.1,1.7c-4.5,0-10.3-1.2-14.8-3.4c-3.6,2.2-7.9,3.4-12.5,3.4c-4.6,0-9.2-1.1-13.3-3
		c-3,1.8-4.9,4.7-4.9,8c0,5.5,5.4,10,12.1,10h85c6.7,0,12.1-4.5,12.1-10C159,110.6,157,107.7,154.1,105.9z"/>
	<path fill="#D7D7D7" d="M67.9,103.9c5,0,9.4-2,12.1-5.1c2.8,3.1,10.2,5.1,15.2,5.1c3.4,0,6.6-1,9.1-2.6c2.5,1.6,5.7,2.6,9.1,2.6
		c5,0,12.4-2,15.2-5.1c2.8,3.1,7.2,5.1,12.1,5.1c8.4,0,18.2-5,18.2-12.5c0-2.5-6.1-7.5-12.1-7.5c-5,0-80,0-85,0
		c-6.1,0-12.1,5-12.1,7.5C49.7,98.9,59.5,103.9,67.9,103.9z"/>
	<path fill="#D7D7D7" d="M146.9,128.9L146.9,128.9c-0.1,1.3-0.6,2.6-1.8,3.5l-12.1,10c-1.2,1-2.7,1.5-4.3,1.5
		c-1.6,0-3.1-0.5-4.3-1.5l-12.1-10c-1.2-1-1.7-2.2-1.7-3.5H61.9c-6.7,0-12.1,4.5-12.1,10s5.4,10,12.1,10h85c6.7,0,12.1-4.5,12.1-10
		S153.6,128.9,146.9,128.9z"/>
</g>
<g>
	<path fill="#0094FF" d="M63.2,160H136c6.7,0,12.1-4.5,12.1-10H51C51,155.5,56.5,160,63.2,160z"/>
	<path fill="#0094FF" d="M136,75c4.7,0,8.6,0.3,11.9,1c-2.5-20.2-23.2-36-48.3-36S53.7,55.8,51.3,76c3.3-0.6,7.2-1,11.9-1H136z
		 M116.3,57.5c2.5,0,4.6,1.7,4.6,3.8c0,2.1-2,3.8-4.6,3.8c-2.5,0-4.6-1.7-4.6-3.8C111.7,59.2,113.8,57.5,116.3,57.5z M99.6,50
		c2.5,0,4.6,1.7,4.6,3.8c0,2.1-2,3.8-4.6,3.8c-2.5,0-4.6-1.7-4.6-3.8C95,51.7,97.1,50,99.6,50z M82.9,57.5c2.5,0,4.6,1.7,4.6,3.8
		c0,2.1-2,3.8-4.6,3.8c-2.5,0-4.6-1.7-4.6-3.8C78.3,59.2,80.4,57.5,82.9,57.5z"/>
	<path fill="#0094FF" d="M149.3,102c-4,1.9-8.7,3-13.3,3c-4.6,0-8.9-1.2-12.5-3.4c-4.5,2.2-10.3,3.4-14.8,3.4
		c-3.2,0-6.3-0.6-9.1-1.7c-2.8,1.1-5.9,1.7-9.1,1.7c-4.5,0-10.3-1.2-14.8-3.4c-3.6,2.2-7.9,3.4-12.5,3.4c-4.6,0-9.2-1.1-13.3-3
		c-3,1.8-4.9,4.7-4.9,8c0,5.5,5.4,10,12.1,10h85c6.7,0,12.1-4.5,12.1-10C154.2,106.7,152.3,103.8,149.3,102z"/>
	<path fill="#0094FF" d="M63.2,100c5,0,9.4-2,12.1-5.1c2.8,3.1,10.2,5.1,15.2,5.1c3.4,0,6.6-1,9.1-2.6c2.5,1.6,5.7,2.6,9.1,2.6
		c5,0,12.4-2,15.2-5.1c2.8,3.1,7.2,5.1,12.1,5.1c8.4,0,18.2-5,18.2-12.5c0-2.5-6.1-7.5-12.1-7.5c-5,0-80,0-85,0
		c-6.1,0-12.1,5-12.1,7.5C44.9,95,54.8,100,63.2,100z"/>
	<path fill="#0094FF" d="M142.1,125L142.1,125c-0.1,1.3-0.6,2.6-1.8,3.5l-12.1,10c-1.2,1-2.7,1.5-4.3,1.5c-1.6,0-3.1-0.5-4.3-1.5
		l-12.1-10c-1.2-1-1.7-2.2-1.7-3.5H57.1c-6.7,0-12.1,4.5-12.1,10s5.4,10,12.1,10h85c6.7,0,12.1-4.5,12.1-10S148.8,125,142.1,125z"/>
</g>
</svg>
