<?xml version="1.0" encoding="utf-8"?>
<!-- Generator: Adobe Illustrator 19.2.1, SVG Export Plug-In . SVG Version: 6.00 Build 0)  -->
<svg version="1.1" id="Ebene_1" xmlns="http://www.w3.org/2000/svg" xmlns:xlink="http://www.w3.org/1999/xlink" x="0px" y="0px"
	 viewBox="0 0 200 200" enable-background="new 0 0 200 200" xml:space="preserve">
<path fill="#D7D7D7" d="M91.8,55.8v18h48v-18H91.8 M79.8,43.8h72v108l6,6v6h-6h-72h-6v-6l6-6v-8.4L57,132.8c-4.2-2-7.2-6.1-7.2-11
	v-42c0-6.6,5.4-12,12-12h18V43.8 M61.8,121.8l18,8.3V79.8h-18V121.8z"/>
<path fill="#0094FF" d="M88,52v18h48V52H88 M76,40h72v108l6,6v6h-6H76h-6v-6l6-6v-8.4L53.2,129c-4.2-2-7.2-6.1-7.2-11V76
	c0-6.6,5.4-12,12-12h18V40 M58,118l18,8.3V76H58V118z"/>
</svg>
