<?xml version="1.0" encoding="utf-8"?>
<!-- Generator: Adobe Illustrator 19.2.1, SVG Export Plug-In . SVG Version: 6.00 Build 0)  -->
<svg version="1.1" id="Ebene_1" xmlns="http://www.w3.org/2000/svg" xmlns:xlink="http://www.w3.org/1999/xlink" x="0px" y="0px"
	 viewBox="0 0 200 200" enable-background="new 0 0 200 200" xml:space="preserve">
<g>
	<path fill="#D7D7D7" d="M147.5,55.4c-1.4-1.4-3.6-1.9-5.4-1.1c-1.9,0.8-3.1,2.6-3.1,4.6v95h10v-30h10c2.8,0,5-2.2,5-5
		C163.9,72.4,148.1,56.1,147.5,55.4z M148.9,113.9V80.2c2.4,8,4.5,19,4.9,33.8H148.9z"/>
	<path fill="#D7D7D7" d="M83.9,73.9v-20h-10v20c0,3.7-2,6.9-5,8.6V53.9h-10v28.6c-3-1.7-5-4.9-5-8.6v-20h-10v20
		c0,9.3,6.4,17.1,15,19.3v60.7h10V93.2C77.5,91,83.9,83.2,83.9,73.9z"/>
	<path fill="#D7D7D7" d="M103.9,88.9c-16.5,0-30,13.5-30,30s13.5,30,30,30s30-13.5,30-30S120.5,88.9,103.9,88.9z"/>
</g>
<g>
	<path fill="#0094FF" d="M143.5,51.5c-1.4-1.4-3.6-1.9-5.4-1.1c-1.9,0.8-3.1,2.6-3.1,4.6v95h10v-30h10c2.8,0,5-2.2,5-5
		C160,68.5,144.2,52.1,143.5,51.5z"/>
	<path fill="#0094FF" d="M80,70V50H70v20c0,3.7-2,6.9-5,8.6V50H55v28.6c-3-1.7-5-4.9-5-8.6V50H40v20c0,9.3,6.4,17.1,15,19.3V150h10
		V89.3C73.6,87.1,80,79.3,80,70z"/>
	<path fill="#0094FF" d="M100,85c-16.5,0-30,13.5-30,30s13.5,30,30,30s30-13.5,30-30S116.5,85,100,85z"/>
</g>
</svg>
