<?xml version="1.0" encoding="utf-8"?>
<!-- Generator: Adobe Illustrator 19.2.1, SVG Export Plug-In . SVG Version: 6.00 Build 0)  -->
<svg version="1.1" id="Ebene_1" xmlns="http://www.w3.org/2000/svg" xmlns:xlink="http://www.w3.org/1999/xlink" x="0px" y="0px"
	 viewBox="0 0 200 200" enable-background="new 0 0 200 200" xml:space="preserve">
<g>
	<path fill="#D7D7D7" d="M111.8,44c-4.3,0-7.8,3.5-7.8,7.8c0-4.3-3.5-7.8-7.8-7.8c-4.3,0-7.8,3.5-7.8,7.8c0,7.8,15.7,23.5,15.7,23.5
		s15.7-15.7,15.7-23.5C119.7,47.5,116.2,44,111.8,44z"/>
	<path fill="#D7D7D7" d="M140.5,91c7.2,0,13-5.8,13-13c0-7.2-5.8-13-13-13c-7.2,0-13,5.8-13,13C127.5,85.1,133.3,91,140.5,91z"/>
	<path fill="#D7D7D7" d="M140.5,96.2c-12.5,0-20.9,10.5-20.9,26.1v10.4c0,2.9,2.3,5.2,5.2,5.2h5.2v20.9c0,2.9,2.3,5.2,5.2,5.2h10.4
		c2.9,0,5.2-2.3,5.2-5.2v-20.9h5.2c2.9,0,5.2-2.3,5.2-5.2v-10.4C161.4,106.7,153,96.2,140.5,96.2z"/>
	<path fill="#D7D7D7" d="M67.5,91c7.2,0,13-5.8,13-13c0-7.2-5.8-13-13-13c-7.2,0-13,5.8-13,13C54.4,85.1,60.3,91,67.5,91z"/>
	<path fill="#D7D7D7" d="M84,125C77.7,98.9,77,96.2,67.4,96.2c-9.4,0-10.1,2.7-16.5,28.9c-1.1,4.7-2.5,10.2-4.1,16.8
		c-0.4,1.5,0,3.2,0.9,4.4c1,1.3,2.4,2,4,2.1c0,0,3.9,0.1,6.9,0.1c1,3,2.5,7.6,3.8,11.9c0.7,2.2,2.7,3.6,5,3.6c2.3,0,4.3-1.5,5-3.6
		c1.3-4.3,2.8-8.9,3.8-11.9c3.1,0,6.9-0.1,6.9-0.1c1.6,0,3.1-0.8,4-2.1c1-1.3,1.3-2.9,0.9-4.4C86.5,135.3,85.2,129.7,84,125z"/>
</g>
<g>
	<path fill="#0094FF" d="M107.8,40c-4.3,0-7.8,3.5-7.8,7.8c0-4.3-3.5-7.8-7.8-7.8c-4.3,0-7.8,3.5-7.8,7.8c0,7.8,15.7,23.5,15.7,23.5
		s15.7-15.7,15.7-23.5C115.7,43.5,112.1,40,107.8,40z"/>
	<path fill="#0094FF" d="M136.5,87c7.2,0,13-5.8,13-13c0-7.2-5.8-13-13-13c-7.2,0-13,5.8-13,13C123.5,81.1,129.3,87,136.5,87z"/>
	<path fill="#0094FF" d="M136.5,92.2c-12.5,0-20.9,10.5-20.9,26.1v10.4c0,2.9,2.3,5.2,5.2,5.2h5.2v20.9c0,2.9,2.3,5.2,5.2,5.2h10.4
		c2.9,0,5.2-2.3,5.2-5.2v-20.9h5.2c2.9,0,5.2-2.3,5.2-5.2v-10.4C157.4,102.7,149,92.2,136.5,92.2z"/>
	<path fill="#0094FF" d="M63.5,87c7.2,0,13-5.8,13-13c0-7.2-5.8-13-13-13c-7.2,0-13,5.8-13,13C50.4,81.1,56.3,87,63.5,87z"/>
	<path fill="#0094FF" d="M80,121C73.6,94.9,73,92.2,63.4,92.2c-9.4,0-10.1,2.7-16.5,28.9c-1.1,4.7-2.5,10.2-4.1,16.8
		c-0.4,1.5,0,3.2,0.9,4.4c1,1.3,2.4,2,4,2.1c0,0,3.9,0.1,6.9,0.1c1,3,2.5,7.6,3.8,11.9c0.7,2.2,2.7,3.6,5,3.6s4.3-1.5,5-3.6
		c1.3-4.3,2.8-8.9,3.8-11.9c3.1,0,6.9-0.1,6.9-0.1c1.6,0,3.1-0.8,4-2.1c1-1.3,1.3-2.9,0.9-4.4C82.5,131.3,81.2,125.7,80,121z"/>
</g>
</svg>
