<?xml version="1.0" encoding="utf-8"?>
<!-- Generator: Adobe Illustrator 19.2.1, SVG Export Plug-In . SVG Version: 6.00 Build 0)  -->
<svg version="1.1" id="Ebene_1" xmlns="http://www.w3.org/2000/svg" xmlns:xlink="http://www.w3.org/1999/xlink" x="0px" y="0px"
	 viewBox="0 0 200 200" enable-background="new 0 0 200 200" xml:space="preserve">
<g>
	<path fill="#D7D7D7" d="M140.7,98H164c-0.9-9.5-4.1-18.3-9-26C147.4,78.5,142.2,87.6,140.7,98z"/>
	<path fill="#D7D7D7" d="M140.7,110.1c1.5,10.4,6.7,19.5,14.3,26c4.8-7.7,8-16.5,9-26H140.7z"/>
	<path fill="#D7D7D7" d="M110.1,98h18.4c1.6-14.2,8.7-26.8,19.1-35.6C138,52.3,124.8,45.5,110.1,44V98z"/>
	<path fill="#D7D7D7" d="M79.6,98H98V44c-14.7,1.5-27.9,8.3-37.6,18.4C70.9,71.2,78,83.8,79.6,98z"/>
	<path fill="#D7D7D7" d="M44,110.1c0.9,9.5,4.1,18.3,9,26c7.6-6.5,12.9-15.7,14.3-26H44z"/>
	<path fill="#D7D7D7" d="M53,72c-4.8,7.7-8,16.5-9,26h23.3C65.9,87.6,60.6,78.5,53,72z"/>
	<path fill="#D7D7D7" d="M128.5,110.1h-18.4v54c14.7-1.5,27.9-8.3,37.6-18.4C137.2,136.9,130.1,124.3,128.5,110.1z"/>
	<path fill="#D7D7D7" d="M98,110.1H79.6c-1.6,14.2-8.7,26.8-19.1,35.6c9.7,10.1,22.8,16.9,37.6,18.4V110.1z"/>
</g>
<g>
	<path fill="#0094FF" d="M136.7,94H160c-0.9-9.5-4.1-18.3-9-26C143.4,74.4,138.2,83.6,136.7,94z"/>
	<path fill="#0094FF" d="M136.7,106c1.5,10.4,6.7,19.5,14.3,26c4.8-7.7,8-16.5,9-26H136.7z"/>
	<path fill="#0094FF" d="M106,94h18.4c1.6-14.2,8.7-26.8,19.1-35.6C133.9,48.3,120.8,41.5,106,40V94z"/>
	<path fill="#0094FF" d="M75.5,94H94V40c-14.7,1.5-27.9,8.3-37.6,18.4C66.8,67.2,73.9,79.7,75.5,94z"/>
	<path fill="#0094FF" d="M40,106c0.9,9.5,4.1,18.3,9,26c7.6-6.5,12.9-15.7,14.3-26H40z"/>
	<path fill="#0094FF" d="M49,67.9c-4.8,7.7-8,16.5-9,26h23.3C61.8,83.6,56.6,74.4,49,67.9z"/>
	<path fill="#0094FF" d="M124.5,106H106v54c14.7-1.5,27.9-8.3,37.6-18.4C133.2,132.8,126.1,120.3,124.5,106z"/>
	<path fill="#0094FF" d="M94,106H75.5c-1.6,14.2-8.7,26.8-19.1,35.6c9.7,10.1,22.8,16.9,37.6,18.4V106z"/>
</g>
</svg>
