<?xml version="1.0" encoding="utf-8"?>
<!-- Generator: Adobe Illustrator 19.2.1, SVG Export Plug-In . SVG Version: 6.00 Build 0)  -->
<svg version="1.1" xmlns="http://www.w3.org/2000/svg" xmlns:xlink="http://www.w3.org/1999/xlink" x="0px" y="0px"
	 viewBox="0 0 2832.4 676" enable-background="new 0 0 2832.4 676" xml:space="preserve">
<g id="Ebene_1" display="none">
</g>
<g id="Ebene_3" display="none">
</g>
<g id="Ebene_4" display="none">
</g>
<g id="Ebene_5" display="none">
</g>
<g id="Ebene_6" display="none">
</g>
<g id="Ebene_7" display="none">
</g>
<g id="Ebene_8">
	<g>
		<g>
			<path fill="#0094FF" d="M942.2,511.4h89.5V551H890.8V337.7h51.4V511.4z"/>
			<path fill="#0094FF" d="M1044.9,470.3c0-11.5,1.7-22.2,5-32.1c3.3-9.9,8.2-18.4,14.6-25.6c6.4-7.2,14.4-12.9,24-16.9
				c9.5-4.1,20.4-6.1,32.7-6.1c12.5,0,23.5,2,33,6.1c9.5,4.1,17.5,9.7,24,16.9c6.4,7.2,11.3,15.8,14.6,25.6c3.3,9.9,5,20.6,5,32.1
				v3.1c0,11.6-1.6,22.3-4.9,32.2c-3.3,9.8-8.1,18.3-14.6,25.5s-14.4,12.8-24,16.8s-20.5,6.1-32.9,6.1c-12.4,0-23.4-2-32.9-6.1
				s-17.5-9.7-24-16.8c-6.5-7.2-11.4-15.7-14.7-25.5c-3.3-9.8-5-20.5-5-32.2V470.3z M1094.3,473.4c0,6,0.4,11.5,1.2,16.7
				c0.8,5.2,2.3,9.7,4.4,13.5c2.1,3.8,4.9,6.8,8.4,9s7.9,3.3,13.2,3.3c5.2,0,9.5-1.1,13-3.3c3.5-2.2,6.2-5.2,8.3-9s3.5-8.3,4.4-13.5
				c0.9-5.2,1.3-10.7,1.3-16.7v-3.1c0-5.8-0.4-11.2-1.2-16.4c-0.8-5.2-2.3-9.7-4.4-13.5c-2.1-3.9-4.9-6.9-8.4-9.2
				c-3.5-2.3-7.9-3.4-13.2-3.4c-5.2,0-9.5,1.1-13,3.4c-3.5,2.3-6.2,5.4-8.3,9.2c-2.1,3.9-3.5,8.4-4.4,13.5
				c-0.9,5.2-1.3,10.6-1.3,16.4V473.4z"/>
			<path fill="#0094FF" d="M1286.6,515.8c6.9,0,12.3-1.9,16.1-5.6c3.8-3.8,5.7-9,5.6-15.7h46.3c0,9-1.7,17.1-5.1,24.4
				c-3.4,7.3-8,13.5-14,18.8c-6,5.2-13,9.3-21.2,12.1s-17,4.2-26.5,4.2c-12.4,0-23.2-2.1-32.5-6.2c-9.3-4.1-17-9.7-23.2-16.9
				c-6.2-7.2-10.9-15.7-14-25.5c-3.1-9.8-4.7-20.4-4.7-31.9v-3.4c0-11.4,1.6-22.1,4.7-31.9c3.1-9.9,7.8-18.4,13.9-25.6
				s13.8-12.8,23.1-16.9s20-6.2,32.3-6.2c10,0,19.1,1.4,27.3,4.2c8.3,2.8,15.3,7,21.2,12.4c5.9,5.4,10.5,12.1,13.8,20
				c3.3,7.9,4.9,16.9,4.9,27h-46.3c0-3.5-0.4-6.8-1.2-10c-0.8-3.1-2.2-5.8-4-8.1c-1.9-2.3-4.2-4.1-7-5.4s-6.1-2-9.9-2
				c-5.1,0-9.2,1.1-12.2,3.4c-3.1,2.3-5.4,5.4-7.1,9.2c-1.7,3.9-2.8,8.4-3.3,13.5c-0.5,5.2-0.8,10.6-0.8,16.3v3.4
				c0,5.9,0.3,11.4,0.8,16.5c0.5,5.1,1.6,9.6,3.3,13.5c1.7,3.9,4.1,6.9,7.3,9.1C1277.3,514.7,1281.5,515.8,1286.6,515.8z"/>
			<path fill="#0094FF" d="M1476.8,551c-1.1-2-2-4.1-2.7-6.5c-0.7-2.4-1.4-5-2-7.7c-3.8,4.8-8.7,8.8-14.8,12.2
				c-6.1,3.3-13.8,5-23.3,5c-7.3,0-14.2-1.2-20.7-3.5c-6.5-2.3-12.2-5.6-17.1-9.7c-4.9-4.1-8.8-9.2-11.6-15
				c-2.9-5.9-4.3-12.3-4.3-19.3c0-8.2,1.5-15.5,4.5-22c3-6.4,7.5-11.9,13.6-16.3c6.1-4.4,13.8-7.9,23.1-10.3
				c9.3-2.4,20.4-3.6,33.2-3.6h15.2v-8.3c0-6.7-1.5-12.1-4.4-16c-2.9-3.9-7.8-5.9-14.5-5.9c-5.7,0-10,1.4-13,4.2
				c-3,2.8-4.5,7.2-4.5,13H1384c0-7.3,1.6-14.2,4.9-20.5c3.3-6.3,7.9-11.8,14-16.4c6.1-4.6,13.4-8.2,21.9-10.8
				c8.5-2.6,18.1-4,28.6-4c9.5,0,18.2,1.2,26.3,3.5s15,5.9,20.9,10.6c5.9,4.7,10.4,10.6,13.8,17.7c3.3,7.1,5,15.3,5,24.7V511
				c0,5.2,0.1,9.7,0.4,13.5s0.7,7.2,1.3,10c0.6,2.9,1.3,5.4,2.1,7.7c0.8,2.2,1.8,4.3,2.9,6.3v2.5H1476.8z M1445.9,518.8
				c6.2,0,11.3-1.3,15.3-4c4.1-2.6,7-5.6,8.7-8.9v-25.3h-15.5c-4.6,0-8.5,0.6-11.6,1.9c-3.2,1.3-5.7,3-7.6,5.1
				c-1.9,2.1-3.3,4.6-4.1,7.4c-0.8,2.8-1.2,5.7-1.2,8.7c0,4.5,1.5,8.1,4.5,10.9C1437.3,517.4,1441.2,518.8,1445.9,518.8z"/>
			<path fill="#0094FF" d="M1598.8,551h-49.5V326h49.5V551z"/>
			<path fill="#0094FF" d="M1752.1,409.5c5-6.2,10.9-11.1,17.7-14.6c6.8-3.5,14.4-5.3,22.8-5.3c7.9,0,15.1,1.1,21.6,3.4
				c6.5,2.2,12.1,5.9,16.8,10.8s8.3,11.5,10.9,19.5c2.6,8,3.9,17.8,3.9,29.3V551h-49.5v-98.7c0-4.8-0.5-8.8-1.5-11.9
				c-1-3.2-2.5-5.7-4.5-7.6c-2-1.9-4.3-3.2-7.1-4s-5.9-1.1-9.4-1.1c-5.5,0-9.9,0.9-13.4,2.6c-3.5,1.7-6.2,4.1-8.1,7.1V551h-49.4V326
				h49.4V409.5z"/>
			<path fill="#0094FF" d="M1867,470.3c0-11.5,1.7-22.2,5-32.1c3.3-9.9,8.2-18.4,14.6-25.6c6.4-7.2,14.4-12.9,24-16.9
				c9.5-4.1,20.4-6.1,32.7-6.1c12.5,0,23.5,2,33,6.1c9.5,4.1,17.5,9.7,24,16.9c6.4,7.2,11.3,15.8,14.6,25.6c3.3,9.9,5,20.6,5,32.1
				v3.1c0,11.6-1.6,22.3-4.9,32.2c-3.3,9.8-8.1,18.3-14.6,25.5s-14.4,12.8-24,16.8s-20.5,6.1-32.9,6.1c-12.4,0-23.4-2-32.9-6.1
				s-17.5-9.7-24-16.8c-6.5-7.2-11.4-15.7-14.7-25.5c-3.3-9.8-5-20.5-5-32.2V470.3z M1916.4,473.4c0,6,0.4,11.5,1.2,16.7
				c0.8,5.2,2.3,9.7,4.4,13.5c2.1,3.8,4.9,6.8,8.4,9s7.9,3.3,13.2,3.3c5.2,0,9.5-1.1,13-3.3c3.5-2.2,6.2-5.2,8.3-9s3.5-8.3,4.4-13.5
				c0.9-5.2,1.3-10.7,1.3-16.7v-3.1c0-5.8-0.4-11.2-1.2-16.4c-0.8-5.2-2.3-9.7-4.4-13.5c-2.1-3.9-4.9-6.9-8.4-9.2
				c-3.5-2.3-7.9-3.4-13.2-3.4c-5.2,0-9.5,1.1-13,3.4c-3.5,2.3-6.2,5.4-8.3,9.2c-2.1,3.9-3.5,8.4-4.4,13.5
				c-0.9,5.2-1.3,10.6-1.3,16.4V473.4z"/>
			<path fill="#0094FF" d="M2124.7,506.5c0-2.1-0.5-3.9-1.4-5.4c-0.9-1.6-2.6-3.1-4.9-4.5c-2.3-1.4-5.5-2.8-9.5-4
				c-4-1.3-9.1-2.6-15.2-4c-7.7-1.7-15-3.8-21.8-6.5c-6.8-2.7-12.7-6-17.7-10c-5-4-9-8.6-11.9-14c-2.9-5.4-4.3-11.5-4.3-18.5
				c0-6.7,1.4-13.1,4.3-19.2c2.9-6.1,7.1-11.4,12.7-16c5.6-4.6,12.4-8.2,20.5-10.9c8.1-2.7,17.3-4,27.7-4c10.6,0,20.3,1.3,28.9,3.8
				c8.6,2.5,15.9,6.1,21.9,10.6s10.6,10,13.8,16.3s4.8,13.3,4.8,20.9H2123c0-6.1-1.5-10.7-4.5-14.1c-3-3.3-8.2-5-15.5-5
				c-2.5,0-4.9,0.4-7.1,1.1s-4.1,1.8-5.8,3.1c-1.7,1.3-3,2.9-4,4.8c-1,1.9-1.5,3.9-1.5,6.2c0,4.3,2.1,7.8,6.2,10.5
				c4.1,2.7,10.9,5,20.1,6.7c8,1.5,15.7,3.3,23.1,5.6c7.4,2.3,13.9,5.4,19.6,9.2c5.7,3.9,10.2,8.7,13.5,14.4
				c3.4,5.8,5.1,12.8,5.1,21.2c0,7-1.6,13.5-4.8,19.5c-3.2,6-7.8,11.1-13.8,15.5c-6,4.3-13.3,7.8-21.8,10.3s-18.1,3.7-28.7,3.7
				c-11.4,0-21.5-1.6-30.2-4.8c-8.7-3.2-16.1-7.4-22-12.5c-5.9-5.1-10.4-10.9-13.4-17.3c-3-6.4-4.5-12.8-4.5-19.1h46.1
				c0.2,7.3,2.6,12.7,7.3,16s10.7,5.1,18,5.1c6.7,0,11.8-1.4,15.2-4.1C2123,514.4,2124.7,510.9,2124.7,506.5z"/>
			<path fill="#0094FF" d="M2252.8,353.1v39.4h26.1v34.3h-26.1v72.5c0,3.1,0.3,5.7,0.8,7.8c0.5,2.1,1.4,3.7,2.6,4.9
				c1.2,1.2,2.9,2.1,4.9,2.6c2.1,0.5,4.6,0.7,7.6,0.7c2.8,0,5.2-0.1,7-0.2c1.9-0.1,3.6-0.4,5.3-0.7v35.3c-4.3,1.4-8.7,2.4-13.2,3.1
				c-4.5,0.7-9.4,1.1-14.6,1.1c-7.9,0-15-0.9-21.2-2.7c-6.2-1.8-11.4-4.7-15.7-8.6c-4.2-3.9-7.5-8.9-9.7-15.1s-3.3-13.5-3.3-22.1
				v-78.7h-20.2v-34.3h20.2v-39.4H2252.8z"/>
		</g>
		<g>
			<rect x="460.2" y="153.1" fill="#FFFFFF" width="341.3" height="400"/>
			<g>
				<path fill="#0094FF" d="M631.8,386.2c0-13.4-0.3-28.9-10.2-38.4c-5.6-5.6-15-8.6-24.1-8.6c-13.4,0-21.3,6-24.7,9.5
					c-12.5,12.1-13.1,30.6-13.1,40.1v80.6c0,8.7-7.1,15.8-15.8,15.8h-30.2c-8.7,0-15.8-7.1-15.8-15.8V153.1h-54.4
					c-8.7,0-15.8,7.1-15.8,15.8v368.4c0,8.7,7.1,15.8,15.8,15.8h188.3V386.2z"/>
				<path fill="#0094FF" d="M810.8,153.1H559.2V282c0,11.9,13,19.4,23.5,13.7c0.1,0,0.3-0.1,0.4-0.1c12.9-6.9,23.9-8.2,37.7-8.2
					c15.1,0,38.1,2.2,54.9,19.4c17.7,17.7,19.5,41.4,19.5,56.1v190.2h115.6c9,0,16.4-7.4,16.4-16.4V169.4
					C827.2,160.5,819.8,153.1,810.8,153.1z M730.2,222.1c0,1.7-1.4,3-3,3h-1.6c-1.3,0-2.4-1.1-2.4-2.4v-19c0-1.8-1.9-3.1-3.6-2.6
					l-0.8,0.2c-1.7,0.5-3.6-0.8-3.6-2.6v-0.4c0-1.1,0.8-2.3,1.8-2.7l12.8-4.6h0.3V222.1z M764.2,222.1c0,1.6-1.3,3-3,3h-17.9
					c-1.7,0-3.1-1.4-3.1-3.1v-1.2c0-0.7,0.5-1.4,1-1.9l10.1-10.5c1.4-1.6,2.5-3,3.1-4.1c0.6-1.2,0.9-2.2,0.9-3
					c0-1.4-0.3-2.5-0.9-3.3c-0.6-0.7-1.5-1.1-2.7-1.1c-0.6,0-1.1,0.1-1.6,0.4c-0.5,0.3-0.9,0.6-1.2,1.1c-0.3,0.5-0.6,1-0.8,1.7
					c0,0,0,0,0,0c-0.1,1.2-1.5,2-2.7,2h-1.9c-2.1,0-3.4-1.8-2.8-3.5c0.1-0.3,0.2-0.5,0.3-0.8c0.6-1.4,1.4-2.5,2.4-3.6
					c1-1,2.3-1.8,3.7-2.4c1.5-0.6,3.1-0.9,4.8-0.9c1.8,0,3.5,0.2,4.9,0.7c1.4,0.4,2.6,1.1,3.5,1.9c0.9,0.8,1.7,1.8,2.1,3
					c0.5,1.2,0.7,2.6,0.7,4.1c0,1.2-0.2,2.3-0.5,3.3c-0.4,1.1-0.9,2.1-1.6,3.2c-0.7,1.1-1.5,2.1-2.5,3.2c-1,1.1-2.1,2.2-3.3,3.4
					c0,0-0.1,0.1-0.1,0.1l-0.4,0.6c-1.5,1.7-0.3,4.6,2,4.6h4.5C762.8,219.1,764.2,220.5,764.2,222.1L764.2,222.1z M791.2,195
					c0,0.1,0,0.3-0.1,0.3l-12,28.1c-0.4,1-1.4,1.6-2.5,1.6h-2.2c-2,0-3.3-2.2-2.4-4l9-20c0.8-1.8-0.5-4-2.4-4h-9.4c-1.6,0-3-1.3-3-3
					v0c0-1.7,1.4-3,3-3h19c1.6,0,3,1.3,3,3V195z"/>
			</g>
		</g>
	</g>
</g>
</svg>
