<?xml version="1.0" encoding="utf-8"?>
<!-- Generator: Adobe Illustrator 19.2.1, SVG Export Plug-In . SVG Version: 6.00 Build 0)  -->
<svg version="1.1" xmlns="http://www.w3.org/2000/svg" xmlns:xlink="http://www.w3.org/1999/xlink" x="0px" y="0px"
	 viewBox="0 0 500 500" enable-background="new 0 0 500 500" xml:space="preserve">
<g id="Ebene_1" display="none">
	<rect x="50" y="50" display="inline" fill="#FF5F00" width="400" height="400"/>
</g>
<g id="Ebene_3" display="none">
	<path display="inline" fill="#FFFFFF" d="M351.3,197.5l-9.1,52.7c-0.6,3.7-3.8,6.4-7.6,6.4h-40.9c-4.8,0-8.4-4.3-7.6-9l16.9-97.6
		c0.8-4.7-2.8-9-7.6-9h-23.2c-3.7,0-7,2.7-7.6,6.4L247,248.5c-0.6,3.7-3.8,6.4-7.6,6.4h-77.2c-4.8,0-8.4-4.3-7.6-9l38.6-214.4
		c0.8-4.7-2.8-9-7.6-9h-23.2c-3.8,0-7,2.7-7.6,6.4l-44.3,247.8c-0.8,4.7,2.8,9,7.6,9h113.3c4.8,0,8.4,4.3,7.6,9l-9,52.1
		c-0.8,4.7,2.8,9,7.6,9h23.1c3.7,0,7-2.7,7.6-6.4l9.8-56.2c0.6-3.7,3.8-6.4,7.6-6.4h40.9c4.8,0,8.4,4.3,7.6,9l-29.8,177.5
		c-0.8,4.7,2.8,9,7.6,9h22.9c3.7,0,7-2.7,7.6-6.4l47-275.8c0.8-4.7-2.8-9-7.6-9h-22.9C355.1,191.1,351.9,193.8,351.3,197.5z"/>
</g>
<g id="Ebene_4" display="none">
	<rect x="116" y="24" display="inline" fill="#FFFFFF" width="40" height="398"/>
	
		<rect x="171" y="355" transform="matrix(1.939497e-011 1 -1 1.939497e-011 621 239)" display="inline" fill="#FFFFFF" width="40" height="150"/>
	
		<rect x="226" y="272" transform="matrix(-1 6.430133e-011 -6.430133e-011 -1 492 694)" display="inline" fill="#FFFFFF" width="40" height="150"/>
	
		<rect x="336" y="75" transform="matrix(-1 8.981248e-011 -8.981248e-011 -1 712 557)" display="inline" fill="#FFFFFF" width="40" height="407"/>
	
		<rect x="281" y="-5" transform="matrix(-1.092299e-010 -1 1 -1.092299e-010 231 371)" display="inline" fill="#FFFFFF" width="40" height="150"/>
	<rect x="226" y="75" display="inline" fill="#FFFFFF" width="40" height="150"/>
</g>
<g id="Ebene_5" display="none">
	<rect x="35" y="32" display="inline" fill="#FF5500" width="80" height="450"/>
	
		<rect x="85" y="352" transform="matrix(2.245297e-011 1 -1 2.245297e-011 567 317)" display="inline" fill="#FF5500" width="80" height="180"/>
	
		<rect x="215" y="302" transform="matrix(-1 6.734778e-011 -6.734778e-011 -1 510 784)" display="inline" fill="#FF5500" width="80" height="180"/>
	
		<rect x="395" y="32" transform="matrix(-1 1.122541e-010 -1.122541e-010 -1 870 513.9937)" display="inline" fill="#FF5500" width="80" height="450"/>
	
		<rect x="345" y="-18" transform="matrix(-1.122541e-010 -1 1 -1.122541e-010 313.0063 456.9937)" display="inline" fill="#FF5500" width="80" height="180"/>
	<rect x="215" y="32" display="inline" fill="#FF5500" width="80" height="180"/>
</g>
<g id="Ebene_6" display="none">
	<g display="inline">
		<path fill="#61CC00" d="M227.1,249.4h-34c-6.6,0-13,5.4-14.2,12l-7.6,43.2c-1.2,6.6-7.5,12-14.2,12h-15.4c-6.6,0-11.1-5.4-9.9-12
			l32.8-185.8c1.2-6.6-3.3-12-9.9-12h-30.9c-6.6,0-13,5.4-14.2,12L70.3,341.7c-1.2,6.6,3.3,12,9.9,12h128.4c6.6,0,13-5.4,14.2-12
			l14.2-80.3C238.2,254.8,233.7,249.4,227.1,249.4z"/>
		<path fill="#61CC00" d="M204.1,118.9l-15,85.2c-1.2,6.6,3.3,12,9.9,12h34c6.6,0,18,0.5,24.7,0.5h15.4c6.6,0,11.1,5.4,9.9,12
			l-20.7,113.1c-1.2,6.6,3.3,12,9.9,12h130c6.6,0,13-5.4,14.2-12l39.3-222.9c1.2-6.6-3.3-12-9.9-12H218.3
			C211.6,106.8,205.3,112.2,204.1,118.9z"/>
	</g>
	<text transform="matrix(1 0 0 1 58.4707 383.8637)" font-family="'Roboto-BlackItalic'" font-size="58.2687px">LOCAL HOST</text>
	<g display="inline">
		<path fill="#61CC00" d="M75.3,402.9h12.1c1.3,0,2.2,1.1,2,2.4l-0.6,3.6c-0.2,1-1,1.7-2,1.7H64.3c-1.3,0-2.2-1.1-2-2.4l6.5-37.4
			c0.2-1,1-1.7,2-1.7h5.7c1.3,0,2.2,1.1,2,2.4l-5,29C73.1,401.8,74.1,402.9,75.3,402.9z"/>
		<path fill="#61CC00" d="M128.5,390.6c-0.4,2.7-1.1,5.3-2.2,7.8c-1.1,2.5-2.5,4.7-4.2,6.6c-1.7,1.9-3.8,3.4-6.2,4.6
			c-2.4,1.1-5,1.7-8,1.6c-1.9,0-3.6-0.3-5.1-0.9c-1.5-0.5-2.9-1.3-4-2.2c-1.1-0.9-2.1-2.1-2.9-3.3c-0.8-1.3-1.4-2.7-1.9-4.2
			s-0.7-3.1-0.9-4.7c-0.1-1.6-0.1-3.3,0.1-5l0.2-1.7c0.4-2.7,1.1-5.3,2.2-7.8c1.1-2.5,2.5-4.7,4.2-6.6c1.7-1.9,3.8-3.4,6.2-4.5
			c2.4-1.1,5-1.6,8-1.6c1.9,0,3.6,0.3,5.1,0.9c1.5,0.5,2.8,1.3,4,2.2c1.1,0.9,2.1,2.1,2.9,3.3c0.8,1.3,1.4,2.7,1.9,4.2
			c0.5,1.5,0.7,3.1,0.9,4.7c0.1,1.6,0.1,3.3-0.1,5L128.5,390.6z M118.8,389c0.1-0.7,0.2-1.6,0.2-2.5c0.1-0.9,0.1-1.8,0-2.7
			c0-0.9-0.2-1.8-0.3-2.7c-0.2-0.9-0.5-1.7-0.9-2.3s-1-1.2-1.7-1.7c-0.7-0.4-1.5-0.7-2.6-0.7c-1.1-0.1-2.2,0.1-3.1,0.4
			c-0.9,0.4-1.7,0.8-2.4,1.5c-0.7,0.6-1.3,1.4-1.8,2.2c-0.5,0.8-1,1.7-1.3,2.7c-0.4,0.9-0.7,1.9-0.9,2.9c-0.2,1-0.4,2-0.5,2.9
			l-0.2,1.8c-0.1,0.8-0.2,1.6-0.2,2.5c-0.1,0.9-0.1,1.8,0,2.7c0,0.9,0.2,1.8,0.4,2.7c0.2,0.9,0.5,1.7,0.9,2.3s1,1.2,1.7,1.7
			c0.7,0.4,1.6,0.7,2.6,0.7c1.1,0.1,2.1-0.1,3-0.5s1.7-0.9,2.4-1.5c0.7-0.6,1.3-1.4,1.8-2.2c0.5-0.9,1-1.8,1.3-2.7
			c0.4-1,0.7-1.9,0.9-2.9s0.4-1.9,0.5-2.8L118.8,389z"/>
		<path fill="#61CC00" d="M162.5,396.5c1.3,0,2.3,1.2,2,2.5c-0.3,1.4-0.8,2.6-1.5,3.8c-1.1,1.8-2.4,3.4-4.1,4.6s-3.5,2.2-5.6,2.8
			c-2.1,0.6-4.3,0.9-6.5,0.9c-1.9,0-3.6-0.3-5.1-0.9c-1.5-0.5-2.8-1.3-3.9-2.2c-1.1-0.9-2-2-2.8-3.3c-0.7-1.3-1.3-2.6-1.7-4.1
			c-0.4-1.5-0.7-3-0.7-4.7c-0.1-1.7,0-3.3,0.2-5l0.3-2.2c0.2-1.8,0.6-3.5,1.2-5.2c0.5-1.7,1.2-3.3,2-4.8c0.8-1.5,1.8-2.9,2.9-4.2
			c1.1-1.3,2.4-2.4,3.8-3.3c1.4-0.9,2.9-1.6,4.6-2.1c1.7-0.5,3.5-0.7,5.4-0.7c2.3,0,4.4,0.4,6.2,1.1s3.3,1.7,4.6,3
			c1.3,1.3,2.2,2.9,3,4.7c0.5,1.2,0.8,2.4,1,3.8c0.2,1.2-0.7,2.4-2,2.4l-5.5,0c-1,0-1.9-0.8-2-1.8c0-0.4-0.1-0.7-0.2-1.1
			c-0.2-0.9-0.5-1.6-0.9-2.2c-0.5-0.6-1.1-1.1-1.8-1.4s-1.7-0.5-2.9-0.6c-1.1,0-2.1,0.1-3,0.5c-0.9,0.3-1.6,0.8-2.3,1.4
			c-0.7,0.6-1.2,1.3-1.7,2.2c-0.5,0.8-0.9,1.7-1.2,2.6c-0.3,0.9-0.6,1.9-0.8,2.8c-0.2,1-0.4,1.9-0.5,2.8l-0.3,2.3
			c-0.1,0.8-0.2,1.6-0.3,2.5c-0.1,0.9-0.1,1.8-0.2,2.7c0,0.9,0.1,1.8,0.2,2.6c0.1,0.8,0.4,1.6,0.8,2.3s0.9,1.2,1.6,1.6
			c0.7,0.4,1.6,0.6,2.6,0.7c2.3,0.1,4.1-0.5,5.5-1.7c1-0.9,1.8-2.1,2.3-3.7c0.3-0.9,1-1.5,1.9-1.5L162.5,396.5z"/>
		<path fill="#61CC00" d="M190.2,402.8H180c-0.8,0-1.5,0.4-1.8,1.2l-2.6,5.4c-0.3,0.7-1,1.2-1.8,1.2h-6.1c-1.5,0-2.5-1.6-1.8-3
			l19.8-37.4c0.3-0.7,1-1.1,1.8-1.1h6.3c1,0,1.8,0.7,2,1.7l6.9,37.4c0.2,1.2-0.7,2.4-2,2.4h-5.9c-1,0-1.9-0.8-2-1.8l-0.5-4.2
			C192.1,403.6,191.2,402.8,190.2,402.8z M185.6,395.1h3.1c1.2,0,2.2-1.1,2-2.3l-0.7-5.2c-0.3-2-3-2.4-3.8-0.6l-2.5,5.2
			C183.1,393.6,184.1,395.1,185.6,395.1z"/>
		<path fill="#61CC00" d="M219.9,402.9H232c1.3,0,2.2,1.1,2,2.4l-0.6,3.6c-0.2,1-1,1.7-2,1.7h-22.5c-1.3,0-2.2-1.1-2-2.4l6.5-37.4
			c0.2-1,1-1.7,2-1.7h5.7c1.3,0,2.2,1.1,2,2.4l-5,29C217.7,401.8,218.7,402.9,219.9,402.9z"/>
		<path fill="#61CC00" d="M283.7,410.6h-5.6c-1.3,0-2.2-1.1-2-2.4l2.2-12.6c0.2-1.2-0.7-2.4-2-2.4h-10.1c-1,0-1.8,0.7-2,1.7l-2.4,14
			c-0.2,1-1,1.7-2,1.7h-5.6c-1.3,0-2.2-1.1-2-2.4l6.5-37.4c0.2-1,1-1.7,2-1.7h5.7c1.3,0,2.2,1.1,2,2.4l-2,11.7
			c-0.2,1.2,0.7,2.4,2,2.4h10.1c1,0,1.8-0.7,2-1.7l2.3-13.1c0.2-1,1-1.7,2-1.7h5.6c1.3,0,2.2,1.1,2,2.4l-6.5,37.4
			C285.5,409.9,284.7,410.6,283.7,410.6z"/>
		<path fill="#61CC00" d="M329.3,390.6c-0.4,2.7-1.1,5.3-2.2,7.8c-1.1,2.5-2.5,4.7-4.2,6.6s-3.8,3.4-6.2,4.6s-5,1.7-8,1.6
			c-1.9,0-3.6-0.3-5.1-0.9c-1.5-0.5-2.8-1.3-4-2.2s-2.1-2.1-2.9-3.3c-0.8-1.3-1.4-2.7-1.9-4.2s-0.7-3.1-0.9-4.7
			c-0.1-1.6-0.1-3.3,0.1-5l0.2-1.7c0.4-2.7,1.1-5.3,2.2-7.8s2.5-4.7,4.2-6.6c1.7-1.9,3.8-3.4,6.2-4.5c2.4-1.1,5-1.6,8-1.6
			c1.9,0,3.6,0.3,5.1,0.9c1.5,0.5,2.8,1.3,4,2.2c1.1,0.9,2.1,2.1,2.9,3.3c0.8,1.3,1.4,2.7,1.9,4.2s0.7,3.1,0.9,4.7
			c0.1,1.6,0.1,3.3-0.1,5L329.3,390.6z M319.6,389c0.1-0.7,0.2-1.6,0.2-2.5c0.1-0.9,0.1-1.8,0-2.7c0-0.9-0.2-1.8-0.3-2.7
			s-0.5-1.7-0.9-2.3c-0.4-0.7-1-1.2-1.7-1.7s-1.5-0.7-2.6-0.7c-1.1-0.1-2.2,0.1-3.1,0.4c-0.9,0.4-1.7,0.8-2.4,1.5
			c-0.7,0.6-1.3,1.4-1.8,2.2c-0.5,0.8-1,1.7-1.3,2.7c-0.4,0.9-0.7,1.9-0.9,2.9s-0.4,2-0.5,2.9l-0.2,1.8c-0.1,0.8-0.2,1.6-0.2,2.5
			c-0.1,0.9-0.1,1.8,0,2.7c0,0.9,0.2,1.8,0.4,2.7c0.2,0.9,0.5,1.7,0.9,2.3s1,1.2,1.7,1.7s1.6,0.7,2.6,0.7c1.1,0.1,2.1-0.1,3-0.5
			c0.9-0.4,1.7-0.9,2.4-1.5c0.7-0.6,1.3-1.4,1.8-2.2s1-1.8,1.3-2.7c0.4-1,0.7-1.9,0.9-2.9s0.4-1.9,0.5-2.8L319.6,389z"/>
		<path fill="#61CC00" d="M353.9,399.4c0.2-0.9,0.1-1.7-0.3-2.3c-0.3-0.6-0.8-1.2-1.4-1.6s-1.3-0.8-2-1.1c-0.7-0.3-1.5-0.6-2.2-0.9
			c-1.5-0.6-3-1.2-4.4-2s-2.8-1.6-4-2.7c-1.2-1-2.1-2.2-2.8-3.6s-1-3-0.9-4.8c0.1-1.4,0.4-2.7,0.9-3.8c0.5-1.1,1.2-2.2,2-3
			c0.8-0.9,1.8-1.7,2.9-2.3c1.1-0.6,2.2-1.2,3.5-1.6c1.2-0.4,2.5-0.7,3.7-0.9c1.3-0.2,2.5-0.3,3.8-0.2c2,0,3.8,0.4,5.4,0.9
			s3.1,1.4,4.4,2.5s2.2,2.4,2.9,4c0.4,1,0.7,2,0.9,3.1c0.2,1.2-0.8,2.3-2,2.3l-5.7,0c-1,0-1.8-0.7-2-1.7c-0.2-0.8-0.5-1.5-0.9-2.1
			c-0.7-1-2-1.5-3.7-1.5c-0.7,0-1.4,0.1-2.1,0.2c-0.7,0.2-1.4,0.4-2,0.8c-0.6,0.4-1.1,0.8-1.5,1.4c-0.4,0.6-0.7,1.2-0.8,2
			c-0.1,0.8,0,1.5,0.4,2c0.4,0.6,0.9,1.1,1.6,1.5s1.4,0.8,2.1,1.1c0.7,0.3,1.4,0.5,1.9,0.7c1.6,0.6,3.1,1.3,4.5,2
			c1.5,0.8,2.8,1.7,3.9,2.8c1.1,1.1,2,2.3,2.6,3.7s0.9,3.1,0.8,4.9c-0.1,2.1-0.7,3.9-1.7,5.4c-1,1.5-2.2,2.7-3.8,3.7
			c-1.5,1-3.2,1.7-5.1,2.1c-1.9,0.4-3.8,0.6-5.6,0.6c-2.1,0-4.2-0.4-6-1s-3.5-1.5-4.9-2.7c-1.4-1.2-2.5-2.6-3.3-4.4
			c-0.5-1.1-0.8-2.4-1-3.7c-0.1-1.2,0.8-2.3,2-2.3l5.7,0c1,0,1.9,0.8,2,1.8c0.2,1.3,0.6,2.3,1.2,3.1c0.9,1.1,2.5,1.6,4.7,1.6
			c0.7,0,1.4-0.1,2-0.2c0.7-0.2,1.3-0.4,1.8-0.8c0.5-0.3,1-0.8,1.4-1.3C353.5,400.8,353.7,400.1,353.9,399.4z"/>
		<path fill="#61CC00" d="M402.5,376.9h-8.7c-1,0-1.8,0.7-2,1.7l-5.3,30.4c-0.2,1-1,1.7-2,1.7h-5.7c-1.3,0-2.2-1.1-2-2.4l5-29
			c0.2-1.2-0.7-2.4-2-2.4h-7.1c-1.3,0-2.2-1.1-2-2.4l0.7-3.7c0.2-1,1-1.7,2-1.7h29.5c1.3,0,2.2,1.1,2,2.4l-0.6,3.7
			C404.3,376.2,403.5,376.9,402.5,376.9z"/>
	</g>
</g>
<g id="Ebene_7" display="none">
	<polygon fill="#61CC00" points="410.1,431 26.1,431 89.9,69 473.9,69 	"/>
	<g>
		<path display="inline" fill="#FFFFFF" d="M176.8,254.2c6.9-8,14.6-14.4,23.2-19.2c8.6-4.8,18.3-7.1,29.3-7
			c11.7,0.3,21.4,2.7,29.2,7.2c7.8,4.6,13.8,10.6,18.2,18.1c4.3,7.5,7.1,16.1,8.5,25.8c1.3,9.7,1.4,19.7,0.3,30L266.7,444h-61.9
			l18.9-135.6c0.5-4.3,0.6-8.3,0.4-12c-0.3-3.8-1.1-7-2.5-9.8c-1.4-2.8-3.6-5-6.5-6.7c-2.9-1.7-6.8-2.6-11.7-2.7
			c-6-0.1-11.4,0.8-16.2,2.9c-4.8,2.1-9.3,5.2-13.5,9.3l-15,89.6H96.7l59.9-343h61.9L176.8,254.2z"/>
	</g>
	<g display="inline">
		<path fill="#61CC00" d="M231,314.4c-0.3-4.3-0.8-8.3-1.7-12c-0.9-3.8-2.3-7-4.3-9.8c-1.9-2.8-4.5-5-7.7-6.7
			c-3.2-1.7-6.2-2.6-11.1-2.7c-6-0.1-11.3,0.8-15.7,2.9c-3.2,1.5-6.2,3.6-9,6.2c-1.9,1.8-2.9,4.3-2.9,7.1l-0.3,69.9
			c0,5.6-4.1,9.7-9.8,9.7h-38.2c-7.2,0-13.9-6.5-13.9-13.6L116,82.6c0-7.1-6.6-13.6-13.9-13.6H67.8c-5.6,0-9.8,4.1-9.8,9.6l0,338.7
			c0,7.1,6.6,13.7,13.9,13.7h149.5c5.8,0,10-4.3,9.8-10L231,314.4z"/>
		<path fill="#61CC00" d="M176.1,78.5L175,216c-0.1,9.7,11.4,16.9,19.2,12.1c0.1,0,0.1-0.1,0.2-0.1c8.9-3.3,17.1-4.1,28-4
			c11.7,0.3,21.8,2.7,30.4,7.2c8.6,4.6,15.7,9.6,21.3,17.1c5.6,7.5,9,16.1,12,25.8c3,9.7,4.9,19.7,5.6,30l0.1,113.7
			c0.3,7,6.8,13.2,13.9,13.2h126.5c5.6,0,9.8-4.1,9.8-9.6l0-338.7c0-7.1-6.6-13.7-13.9-13.7H185.9C180.3,69,176.2,73,176.1,78.5z"/>
	</g>
</g>
<g id="Ebene_8">
	<g>
		<rect x="83" y="50" fill="#FFFFFF" width="341.3" height="400"/>
		<g>
			<path fill="#0094FF" d="M254.7,283.1c0-13.4-0.3-28.9-10.2-38.4c-5.6-5.6-15-8.6-24.1-8.6c-13.4,0-21.3,6-24.7,9.5
				c-12.5,12.1-13.1,30.6-13.1,40.1v80.6c0,8.7-7.1,15.8-15.8,15.8h-30.2c-8.7,0-15.8-7.1-15.8-15.8V50H66.3
				c-8.7,0-15.8,7.1-15.8,15.8v368.4c0,8.7,7.1,15.8,15.8,15.8h188.3V283.1z"/>
			<path fill="#0094FF" d="M433.7,50H182v128.9c0,11.9,13,19.4,23.5,13.7c0.1,0,0.3-0.1,0.4-0.1c12.9-6.9,23.9-8.2,37.7-8.2
				c15.1,0,38.1,2.2,54.9,19.4c17.7,17.7,19.5,41.4,19.5,56.1V450h115.6c9,0,16.4-7.4,16.4-16.4V66.3C450,57.4,442.6,50,433.7,50z
				 M353,119c0,1.7-1.4,3-3,3h-1.6c-1.3,0-2.4-1.1-2.4-2.4v-19c0-1.8-1.9-3.1-3.6-2.6l-0.8,0.2c-1.7,0.5-3.6-0.8-3.6-2.6v-0.4
				c0-1.1,0.8-2.3,1.8-2.7l12.8-4.6h0.3V119z M387,119c0,1.6-1.3,3-3,3h-17.9c-1.7,0-3.1-1.4-3.1-3.1v-1.2c0-0.7,0.5-1.4,1-1.9
				l10.1-10.5c1.4-1.6,2.5-3,3.1-4.1c0.6-1.2,0.9-2.2,0.9-3c0-1.4-0.3-2.5-0.9-3.3c-0.6-0.7-1.5-1.1-2.7-1.1c-0.6,0-1.1,0.1-1.6,0.4
				c-0.5,0.3-0.9,0.6-1.2,1.1c-0.3,0.5-0.6,1-0.8,1.7c0,0,0,0,0,0c-0.1,1.2-1.5,2-2.7,2l-1.9,0c-2.1,0-3.4-1.8-2.8-3.5
				c0.1-0.3,0.2-0.5,0.3-0.8c0.6-1.4,1.4-2.5,2.4-3.6c1-1,2.3-1.8,3.7-2.4c1.5-0.6,3.1-0.9,4.8-0.9c1.8,0,3.5,0.2,4.9,0.7
				c1.4,0.4,2.6,1.1,3.5,1.9c0.9,0.8,1.7,1.8,2.1,3c0.5,1.2,0.7,2.6,0.7,4.1c0,1.2-0.2,2.3-0.5,3.3c-0.4,1.1-0.9,2.1-1.6,3.2
				c-0.7,1.1-1.5,2.1-2.5,3.2c-1,1.1-2.1,2.2-3.3,3.4c0,0-0.1,0.1-0.1,0.1l-0.4,0.6c-1.5,1.7-0.3,4.6,2,4.6h4.5
				C385.6,116,387,117.4,387,119L387,119z M414,91.9c0,0.1,0,0.3-0.1,0.3l-12,28.1c-0.4,1-1.4,1.6-2.5,1.6h-2.2c-2,0-3.3-2.2-2.4-4
				l9-20c0.8-1.8-0.5-4-2.4-4H392c-1.6,0-3-1.3-3-3v0c0-1.7,1.4-3,3-3h19c1.6,0,3,1.3,3,3V91.9z"/>
		</g>
	</g>
</g>
</svg>
