<?xml version="1.0" encoding="utf-8"?>
<!-- Generator: Adobe Illustrator 19.2.1, SVG Export Plug-In . SVG Version: 6.00 Build 0)  -->
<svg version="1.1" xmlns="http://www.w3.org/2000/svg" xmlns:xlink="http://www.w3.org/1999/xlink" x="0px" y="0px"
	 viewBox="0 0 500 500" enable-background="new 0 0 500 500" xml:space="preserve">
<g id="Ebene_1" display="none">
</g>
<g id="Ebene_3" display="none">
</g>
<g id="Ebene_4" display="none">
</g>
<g id="Ebene_5" display="none">
</g>
<g id="Ebene_6" display="none">
</g>
<g id="Ebene_7" display="none">
</g>
<g id="Ebene_8">
	<rect display="none" fill="#0094FF" width="500" height="500"/>
	<g>
		<rect x="82.7" y="50" fill="#0094FF" width="341.3" height="400"/>
		<g>
			<path fill="#FFFFFF" d="M254.4,283.1c0-13.4-0.3-28.9-10.2-38.4c-5.6-5.6-15-8.6-24.1-8.6c-13.4,0-21.3,6-24.7,9.5
				c-12.5,12.1-13.1,30.6-13.1,40.1v80.6c0,8.7-7.1,15.8-15.8,15.8h-30.2c-8.7,0-15.8-7.1-15.8-15.8V65.8c0-8.7-7.1-15.8-15.8-15.8
				H66.1c-8.7,0-15.8,7.1-15.8,15.8v368.4c0,8.7,7.1,15.8,15.8,15.8h172.5c8.7,0,15.8-7.1,15.8-15.8V283.1z"/>
			<path fill="#FFFFFF" d="M433.4,50H198.1c-8.7,0-16.1,7.6-16.1,16.3v112.6c0,11.9,12.9,19.4,23.4,13.7c0.1,0,0.2-0.1,0.3-0.1
				c12.9-6.9,23.8-8.2,37.6-8.2c15.1,0,38.2,2.2,55,19.4c17.7,17.7,19.7,41.4,19.7,56.1v173.9c0,8.7,6.2,16.3,15,16.3h100.4
				c8.7,0,16.6-7.6,16.6-16.3V66.3C450,57.6,442.1,50,433.4,50z M353,119c0,1.5-1.1,3-2.6,3h-2.4c-1.5,0-2.1-1.6-2.1-3v-18.3
				c0-1.8-2-3.1-3.7-2.6l-0.8,0.2c-1.7,0.5-3.5-0.8-3.5-2.6v-0.4c0-1.1,0.6-2.3,1.7-2.7l12.7-4.6h0.6V119z M387,119
				c0,1.5-1.8,3-3.3,3h-17.9c-1.5,0-2.9-1.6-2.9-3v-1.3c0-0.7,0.4-1.4,0.8-1.9l10-10.5c1.4-1.6,2.5-3,3.1-4.1c0.6-1.2,0.9-2.2,0.9-3
				c0-1.4-0.3-2.5-0.9-3.3c-0.6-0.7-1.5-1.1-2.7-1.1c-0.6,0-1.1,0.1-1.6,0.4c-0.5,0.3-0.9,0.6-1.2,1.1c-0.3,0.5-0.6,1-0.8,1.7
				c0,0,0,0,0,0c-0.4,1.2-1.4,2-2.6,2h-2.3c-1.8,0-3.1-1.7-2.6-3.4c0.1-0.3,0.2-0.6,0.3-0.9c0.6-1.4,1.4-2.5,2.4-3.6
				c1-1,2.3-1.8,3.7-2.4c1.5-0.6,3.1-0.9,4.8-0.9c1.8,0,3.5,0.2,4.9,0.7c1.4,0.4,2.6,1.1,3.5,1.9c0.9,0.8,1.7,1.8,2.1,3
				c0.5,1.2,0.7,2.6,0.7,4.1c0,1.2-0.2,2.3-0.5,3.3c-0.4,1.1-0.9,2.1-1.6,3.2c-0.7,1.1-1.5,2.1-2.5,3.2c-1,1.1-2.1,2.2-3.3,3.4
				c0,0-0.1,0.1-0.1,0.1l-0.4,0.6c-1.5,1.7-0.3,4.6,2,4.6h4.5c1.5,0,3.3,0.9,3.3,2.4V119z M414,91.9c0,0.4-0.4,0.7-0.5,1.1
				l-11.7,27.2c-0.4,1-1.5,1.8-2.6,1.8H397c-2,0-3.3-2.2-2.4-4l9-20c0.8-1.8-0.5-4-2.4-4h-9c-1.5,0-3.1-0.9-3.1-2.4V91
				c0-1.5,1.6-3,3.1-3h18.6c1.5,0,3.3,1.6,3.3,3V91.9z"/>
		</g>
	</g>
</g>
</svg>
