<?xml version="1.0" encoding="utf-8"?>
<!-- Generator: Adobe Illustrator 19.2.1, SVG Export Plug-In . SVG Version: 6.00 Build 0)  -->
<svg version="1.1" id="Ebene_1" xmlns="http://www.w3.org/2000/svg" xmlns:xlink="http://www.w3.org/1999/xlink" x="0px" y="0px"
	 viewBox="0 0 200 200" enable-background="new 0 0 200 200" xml:space="preserve">
<path fill="#61CC00" d="M100,40c-26.5,0-48,21.5-48,48s48,72,48,72s48-45.5,48-72S126.5,40,100,40z"/>
<g>
	<path fill="#FFFFFF" d="M100.1,88.4c0-1.5,0-3.3-1.2-4.4c-0.6-0.6-1.7-1-2.7-1c-1.5,0-2.4,0.7-2.8,1.1C92,85.5,92,87.6,92,88.7v9.1
		c0,1-0.8,1.8-1.8,1.8h-3.4c-1,0-1.8-0.8-1.8-1.8V62h-6.2c-1,0-1.8,0.8-1.8,1.8v41.7c0,1,0.8,1.8,1.8,1.8h21.3L100.1,88.4
		L100.1,88.4z"/>
	<path fill="#FFFFFF" d="M120.5,62H91.9v14.6c0,1.3,1.5,2.2,2.7,1.6c0,0,0,0,0,0c1.5-0.8,2.7-0.9,4.3-0.9c1.7,0,4.3,0.2,6.2,2.2
		c2,2,2.2,4.7,2.2,6.4l0,21.5h13.1c1,0,1.9-0.8,1.9-1.9V63.8C122.3,62.8,121.5,62,120.5,62z"/>
</g>
</svg>
